<svg width="20" height="20" viewBox="0 0 20 20" fill="none" xmlns="http://www.w3.org/2000/svg">
<path d="M9.95624 16.6006C8.07186 16.6006 6.18747 16.3014 4.40014 15.7029C3.72079 15.4684 3.20319 14.9912 2.97674 14.3685C2.7422 13.7458 2.82308 13.0583 3.1951 12.4437L4.12516 10.899C4.31926 10.5755 4.49719 9.92846 4.49719 9.54835L4.49719 7.21107C4.49719 4.20252 6.9477 1.75201 9.95624 1.75201C12.9648 1.75201 15.4153 4.20252 15.4153 7.21107V9.54835C15.4153 9.92037 15.5932 10.5755 15.7873 10.907L16.7093 12.4437C17.0571 13.026 17.1218 13.7296 16.8872 14.3685C16.6527 15.0074 16.1432 15.4927 15.5043 15.7029C13.725 16.3014 11.8406 16.6006 9.95624 16.6006ZM9.95624 2.96514C7.61896 2.96514 5.71031 4.8657 5.71031 7.21107L5.71031 9.54835C5.71031 10.1387 5.46769 11.0122 5.16845 11.5217L4.23839 13.0664C4.06046 13.3656 4.01194 13.6811 4.11708 13.9479C4.21413 14.2229 4.45675 14.4332 4.78834 14.5464C8.16891 15.6787 11.7517 15.6787 15.1322 14.5464C15.4234 14.4494 15.6498 14.231 15.755 13.9399C15.8601 13.6487 15.8358 13.3333 15.6741 13.0664L14.744 11.5217C14.4367 10.996 14.2022 10.1306 14.2022 9.54026V7.21107C14.2022 4.8657 12.3016 2.96514 9.95624 2.96514Z" fill="#898989"/>
<path d="M11.4606 3.1835C11.4039 3.1835 11.3473 3.17541 11.2907 3.15924C11.0562 3.09454 10.8297 3.04601 10.6114 3.01366C9.92393 2.9247 9.26076 2.97323 8.63803 3.15924C8.41158 3.23203 8.16895 3.15924 8.01529 2.9894C7.86163 2.81956 7.8131 2.57694 7.90206 2.35858C8.23365 1.50939 9.0424 0.951355 9.96437 0.951355C10.8863 0.951355 11.6951 1.5013 12.0267 2.35858C12.1076 2.57694 12.0671 2.81956 11.9135 2.9894C11.7921 3.1188 11.6223 3.1835 11.4606 3.1835Z" fill="#898989"/>
<path d="M9.95627 18.4446C9.15561 18.4446 8.37921 18.1211 7.81308 17.555C7.24696 16.9888 6.92346 16.2124 6.92346 15.4118H8.13658C8.13658 15.8889 8.33068 16.358 8.67036 16.6977C9.01003 17.0374 9.47911 17.2315 9.95627 17.2315C10.9591 17.2315 11.776 16.4146 11.776 15.4118H12.9891C12.9891 17.0859 11.6304 18.4446 9.95627 18.4446Z" fill="#898989"/>
</svg>
