<svg width="156" height="32" viewBox="0 0 156 32" fill="none" xmlns="http://www.w3.org/2000/svg">
<path d="M16.3479 0.174049L18.1807 10.0612L25.475 3.13963L21.1463 12.2158L31.1159 10.9036L22.2791 15.702L31.1159 20.5004L21.1463 19.1883L25.475 28.2644L18.1807 21.3429L16.3479 31.23L14.5151 21.3429L7.22081 28.2644L11.5495 19.1883L1.57994 20.5004L10.4168 15.702L1.57994 10.9036L11.5495 12.2158L7.22081 3.13963L14.5151 10.0612L16.3479 0.174049Z" fill="url(#paint0_linear_1_863)"/>
<path d="M53.3821 7.89765V10.7393L48.3977 10.7393V24.202H45.556V10.7393H40.5716V7.89765L53.3821 7.89765ZM62.7155 12.556H65.5571V24.202H62.7155L62.5874 22.7579C62.269 23.2781 61.8459 23.7012 61.318 24.0273C60.7978 24.3457 60.1805 24.5048 59.4662 24.5048C58.6044 24.5048 57.797 24.3418 57.0439 24.0157C56.2908 23.6896 55.627 23.2393 55.0524 22.6648C54.4857 22.0902 54.0392 21.4264 53.7131 20.6733C53.3948 19.9202 53.2356 19.1127 53.2356 18.2509C53.2356 17.4202 53.387 16.6399 53.6898 15.9101C54.0004 15.1803 54.4313 14.5397 54.9825 13.9885C55.5338 13.4373 56.1704 13.0064 56.8925 12.6958C57.6145 12.3852 58.3909 12.23 59.2217 12.23C59.9903 12.23 60.6774 12.4008 61.283 12.7424C61.8964 13.084 62.4166 13.5188 62.8436 14.0467L62.7155 12.556ZM59.3964 21.768C60.002 21.768 60.5377 21.6166 61.0035 21.3138C61.4694 21.011 61.8343 20.6034 62.0982 20.091C62.3622 19.5708 62.4942 19.0002 62.4942 18.379C62.4942 17.7502 62.3622 17.1795 62.0982 16.6671C61.8343 16.1469 61.4655 15.7354 60.9919 15.4326C60.526 15.1298 59.9942 14.9784 59.3964 14.9784C58.7985 14.9784 58.2512 15.1337 57.7543 15.4442C57.2652 15.747 56.8731 16.1547 56.578 16.6671C56.2908 17.1795 56.1471 17.7502 56.1471 18.379C56.1471 19.0079 56.2947 19.5786 56.5897 20.091C56.8847 20.6034 57.2768 21.011 57.7659 21.3138C58.2628 21.6166 58.8063 21.768 59.3964 21.768ZM67.946 24.202V6.73305H70.7876V24.202H67.946ZM78.5293 24.5048C77.4578 24.5048 76.4796 24.2292 75.5945 23.678C74.7171 23.1267 74.0145 22.3853 73.4866 21.4536C72.9664 20.5219 72.7063 19.4932 72.7063 18.3674C72.7063 17.5211 72.8577 16.7292 73.1605 15.9916C73.4633 15.2463 73.8786 14.5941 74.4066 14.0351C74.9423 13.4683 75.5634 13.0258 76.2699 12.7074C76.9765 12.3891 77.7296 12.23 78.5293 12.23C79.4377 12.23 80.2684 12.4241 81.0215 12.8123C81.7824 13.1927 82.4268 13.7168 82.9547 14.3845C83.4827 15.0522 83.867 15.813 84.1077 16.6671C84.3484 17.5211 84.4027 18.414 84.2707 19.3457H75.7575C75.8662 19.7804 76.0448 20.1725 76.2932 20.5219C76.5417 20.8635 76.8561 21.1391 77.2366 21.3488C77.617 21.5506 78.0479 21.6554 78.5293 21.6632C79.0262 21.671 79.4765 21.5545 79.8802 21.3138C80.2917 21.0654 80.6333 20.7315 80.905 20.3123L83.8049 20.9877C83.3313 22.0203 82.6248 22.8666 81.6853 23.5266C80.7459 24.1787 79.6939 24.5048 78.5293 24.5048ZM75.6644 17.2144H81.3942C81.3088 16.7486 81.1263 16.3293 80.8468 15.9567C80.5751 15.5762 80.2373 15.2734 79.8336 15.0483C79.4299 14.8231 78.9951 14.7106 78.5293 14.7106C78.0634 14.7106 77.6325 14.8231 77.2366 15.0483C76.8406 15.2657 76.5029 15.5646 76.2234 15.945C75.9516 16.3177 75.7653 16.7408 75.6644 17.2144ZM96.8333 16.8418V24.202H93.9917V17.5871C93.9917 17.129 93.8791 16.7137 93.6539 16.341C93.4288 15.9606 93.126 15.6616 92.7455 15.4442C92.3729 15.2191 91.9575 15.1065 91.4994 15.1065C91.0414 15.1065 90.6221 15.2191 90.2417 15.4442C89.869 15.6616 89.5701 15.9606 89.3449 16.341C89.1275 16.7137 89.0188 17.129 89.0188 17.5871V24.202H86.1772L86.1656 12.556H89.0072L89.0188 13.5925C89.4148 13.1733 89.8884 12.8433 90.4396 12.6026C90.9909 12.3542 91.5848 12.23 92.2215 12.23C93.0678 12.23 93.8403 12.4396 94.539 12.8588C95.2378 13.2703 95.7929 13.8255 96.2044 14.5242C96.6237 15.2152 96.8333 15.9877 96.8333 16.8418ZM105.396 15.3977H103.136V24.202H100.295V15.3977H98.5713V12.556H100.295V8.89921H103.136V12.556H105.396V15.3977ZM115.048 24.5048C113.945 24.5048 112.909 24.2874 111.938 23.8526C110.968 23.4101 110.114 22.8006 109.376 22.0242C108.647 21.2478 108.072 20.3511 107.653 19.334C107.241 18.3092 107.036 17.2144 107.036 16.0498C107.036 14.8775 107.241 13.7828 107.653 12.7657C108.072 11.7408 108.647 10.8441 109.376 10.0755C110.114 9.29905 110.968 8.69346 111.938 8.25868C112.909 7.81613 113.945 7.59486 115.048 7.59486C116.368 7.59486 117.583 7.90153 118.693 8.51489C119.803 9.12048 120.723 9.93182 121.453 10.9489L118.914 12.3115C118.456 11.7447 117.886 11.2905 117.202 10.9489C116.527 10.6073 115.809 10.4365 115.048 10.4365C114.334 10.4365 113.662 10.584 113.033 10.879C112.404 11.1663 111.853 11.57 111.379 12.0902C110.906 12.6026 110.537 13.2005 110.273 13.8837C110.009 14.5592 109.877 15.2812 109.877 16.0498C109.877 16.8262 110.009 17.5522 110.273 18.2276C110.545 18.9031 110.918 19.5009 111.391 20.0211C111.865 20.5335 112.412 20.9373 113.033 21.2323C113.662 21.5196 114.334 21.6632 115.048 21.6632C115.824 21.6632 116.546 21.4924 117.214 21.1508C117.89 20.8014 118.456 20.3433 118.914 19.7766L121.453 21.1508C120.723 22.1601 119.803 22.9714 118.693 23.5848C117.583 24.1981 116.368 24.5048 115.048 24.5048ZM128.161 24.5048C127.09 24.5048 126.111 24.2292 125.226 23.678C124.349 23.1267 123.646 22.3891 123.118 21.4652C122.598 20.5335 122.338 19.5048 122.338 18.379C122.338 17.525 122.49 16.7292 122.792 15.9916C123.095 15.2463 123.511 14.5941 124.038 14.0351C124.574 13.4683 125.195 13.0258 125.902 12.7074C126.608 12.3891 127.361 12.23 128.161 12.23C129.233 12.23 130.207 12.5056 131.084 13.0568C131.969 13.6081 132.672 14.3495 133.192 15.2812C133.72 16.2129 133.984 17.2455 133.984 18.379C133.984 19.2253 133.833 20.0172 133.53 20.7548C133.227 21.4924 132.808 22.1446 132.272 22.7113C131.744 23.2703 131.127 23.709 130.42 24.0273C129.722 24.3457 128.969 24.5048 128.161 24.5048ZM128.161 21.6632C128.728 21.6632 129.236 21.5118 129.687 21.209C130.137 20.9062 130.49 20.5064 130.747 20.0095C131.011 19.5126 131.143 18.9691 131.143 18.379C131.143 17.7734 131.007 17.2222 130.735 16.7253C130.471 16.2206 130.11 15.8208 129.652 15.5258C129.202 15.223 128.705 15.0716 128.161 15.0716C127.602 15.0716 127.097 15.223 126.647 15.5258C126.197 15.8286 125.84 16.2323 125.576 16.737C125.312 17.2416 125.18 17.789 125.18 18.379C125.18 18.9924 125.316 19.5475 125.587 20.0444C125.859 20.5413 126.22 20.9373 126.67 21.2323C127.129 21.5196 127.625 21.6632 128.161 21.6632ZM135.809 24.202L135.797 12.556H138.639L138.651 13.5925C139.047 13.1733 139.52 12.8433 140.072 12.6026C140.623 12.3542 141.217 12.23 141.853 12.23C142.28 12.23 142.707 12.2921 143.134 12.4163L142.016 15.2812C141.721 15.1647 141.426 15.1065 141.131 15.1065C140.673 15.1065 140.254 15.2191 139.874 15.4442C139.501 15.6616 139.202 15.9606 138.977 16.341C138.759 16.7137 138.651 17.129 138.651 17.5871V24.202H135.809ZM149.019 24.5048C147.948 24.5048 146.97 24.2292 146.085 23.678C145.207 23.1267 144.505 22.3853 143.977 21.4536C143.456 20.5219 143.196 19.4932 143.196 18.3674C143.196 17.5211 143.348 16.7292 143.65 15.9916C143.953 15.2463 144.369 14.5941 144.897 14.0351C145.432 13.4683 146.053 13.0258 146.76 12.7074C147.466 12.3891 148.22 12.23 149.019 12.23C149.928 12.23 150.758 12.4241 151.512 12.8123C152.272 13.1927 152.917 13.7168 153.445 14.3845C153.973 15.0522 154.357 15.813 154.598 16.6671C154.838 17.5211 154.893 18.414 154.761 19.3457H146.248C146.356 19.7804 146.535 20.1725 146.783 20.5219C147.032 20.8635 147.346 21.1391 147.727 21.3488C148.107 21.5506 148.538 21.6554 149.019 21.6632C149.516 21.671 149.966 21.5545 150.37 21.3138C150.782 21.0654 151.123 20.7315 151.395 20.3123L154.295 20.9877C153.821 22.0203 153.115 22.8666 152.175 23.5266C151.236 24.1787 150.184 24.5048 149.019 24.5048ZM146.154 17.2144H151.884C151.799 16.7486 151.616 16.3293 151.337 15.9567C151.065 15.5762 150.727 15.2734 150.324 15.0483C149.92 14.8231 149.485 14.7106 149.019 14.7106C148.553 14.7106 148.123 14.8231 147.727 15.0483C147.331 15.2657 146.993 15.5646 146.713 15.945C146.442 16.3177 146.255 16.7408 146.154 17.2144Z" fill="white"/>
<defs>
<linearGradient id="paint0_linear_1_863" x1="4.77379" y1="4.98709" x2="28.6273" y2="12.4148" gradientUnits="userSpaceOnUse">
<stop stop-color="#6E38E0"/>
<stop offset="1" stop-color="#FF5F36"/>
</linearGradient>
</defs>
</svg>
