<svg width="21" height="21" viewBox="0 0 21 21" fill="none" xmlns="http://www.w3.org/2000/svg">
<path d="M14.3665 3.50999V2.24834C14.3665 1.91675 14.0915 1.64178 13.7599 1.64178C13.4283 1.64178 13.1534 1.91675 13.1534 2.24834V3.46146L7.89649 3.46146V2.24834C7.89649 1.91675 7.62151 1.64178 7.28992 1.64178C6.95834 1.64178 6.68336 1.91675 6.68336 2.24834V3.50999C4.49974 3.71217 3.44028 5.01426 3.27853 6.94717C3.26236 7.18171 3.45646 7.37581 3.68291 7.37581L17.3669 7.37581C17.6015 7.37581 17.7956 7.17362 17.7713 6.94717C17.6096 5.01426 16.5501 3.71217 14.3665 3.50999Z" fill="#898989"/>
<path d="M16.9949 8.58893L4.05493 8.58893C3.61012 8.58893 3.24619 8.95287 3.24619 9.39768L3.24619 14.3796C3.24619 16.8058 4.45931 18.4233 7.28993 18.4233H13.7599C16.5905 18.4233 17.8037 16.8058 17.8037 14.3796V9.39768C17.8037 8.95287 17.4397 8.58893 16.9949 8.58893ZM8.26851 15.3582C8.22808 15.3905 8.18764 15.4309 8.1472 15.4552C8.09868 15.4876 8.05015 15.5118 8.00163 15.528C7.9531 15.5523 7.90458 15.5684 7.85605 15.5765C7.79944 15.5846 7.75092 15.5927 7.6943 15.5927C7.58917 15.5927 7.48403 15.5684 7.38698 15.528C7.28184 15.4876 7.20097 15.4309 7.12009 15.3582C6.97452 15.2045 6.88555 14.9942 6.88555 14.7839C6.88555 14.5737 6.97452 14.3634 7.12009 14.2097C7.20097 14.1369 7.28184 14.0803 7.38698 14.0399C7.53255 13.9752 7.6943 13.959 7.85605 13.9914C7.90458 13.9995 7.9531 14.0156 8.00163 14.0399C8.05015 14.0561 8.09868 14.0803 8.1472 14.1127C8.18764 14.145 8.22808 14.1774 8.26851 14.2097C8.41409 14.3634 8.50305 14.5737 8.50305 14.7839C8.50305 14.9942 8.41409 15.2045 8.26851 15.3582ZM8.26851 12.5275C8.11485 12.6731 7.90458 12.7621 7.6943 12.7621C7.48403 12.7621 7.27375 12.6731 7.12009 12.5275C6.97452 12.3739 6.88555 12.1636 6.88555 11.9533C6.88555 11.743 6.97452 11.5328 7.12009 11.3791C7.34654 11.1527 7.70239 11.0799 8.00163 11.2093C8.10676 11.2497 8.19573 11.3063 8.26851 11.3791C8.41409 11.5328 8.50305 11.743 8.50305 11.9533C8.50305 12.1636 8.41409 12.3739 8.26851 12.5275ZM11.0991 15.3582C10.9455 15.5037 10.7352 15.5927 10.5249 15.5927C10.3146 15.5927 10.1044 15.5037 9.95071 15.3582C9.80514 15.2045 9.71617 14.9942 9.71617 14.7839C9.71617 14.5737 9.80514 14.3634 9.95071 14.2097C10.2499 13.9105 10.7999 13.9105 11.0991 14.2097C11.2447 14.3634 11.3337 14.5737 11.3337 14.7839C11.3337 14.9942 11.2447 15.2045 11.0991 15.3582ZM11.0991 12.5275C11.0587 12.5599 11.0183 12.5922 10.9778 12.6246C10.9293 12.6569 10.8808 12.6812 10.8322 12.6974C10.7837 12.7216 10.7352 12.7378 10.6867 12.7459C10.6301 12.754 10.5815 12.7621 10.5249 12.7621C10.3146 12.7621 10.1044 12.6731 9.95071 12.5275C9.80514 12.3739 9.71617 12.1636 9.71617 11.9533C9.71617 11.743 9.80514 11.5328 9.95071 11.3791C10.0235 11.3063 10.1125 11.2497 10.2176 11.2093C10.5168 11.0799 10.8727 11.1527 11.0991 11.3791C11.2447 11.5328 11.3337 11.743 11.3337 11.9533C11.3337 12.1636 11.2447 12.3739 11.0991 12.5275ZM13.9298 15.3582C13.7761 15.5037 13.5658 15.5927 13.3555 15.5927C13.1453 15.5927 12.935 15.5037 12.7813 15.3582C12.6358 15.2045 12.5468 14.9942 12.5468 14.7839C12.5468 14.5737 12.6358 14.3634 12.7813 14.2097C13.0806 13.9105 13.6305 13.9105 13.9298 14.2097C14.0753 14.3634 14.1643 14.5737 14.1643 14.7839C14.1643 14.9942 14.0753 15.2045 13.9298 15.3582ZM13.9298 12.5275C13.8893 12.5599 13.8489 12.5922 13.8084 12.6246C13.7599 12.6569 13.7114 12.6812 13.6629 12.6974C13.6143 12.7216 13.5658 12.7378 13.5173 12.7459C13.4607 12.754 13.4041 12.7621 13.3555 12.7621C13.1453 12.7621 12.935 12.6731 12.7813 12.5275C12.6358 12.3739 12.5468 12.1636 12.5468 11.9533C12.5468 11.743 12.6358 11.5328 12.7813 11.3791C12.8622 11.3063 12.9431 11.2497 13.0482 11.2093C13.1938 11.1446 13.3555 11.1284 13.5173 11.1607C13.5658 11.1688 13.6143 11.185 13.6629 11.2093C13.7114 11.2254 13.7599 11.2497 13.8084 11.2821C13.8489 11.3144 13.8893 11.3468 13.9298 11.3791C14.0753 11.5328 14.1643 11.743 14.1643 11.9533C14.1643 12.1636 14.0753 12.3739 13.9298 12.5275Z" fill="#898989"/>
</svg>
