<svg width="21" height="20" viewBox="0 0 21 20" fill="none" xmlns="http://www.w3.org/2000/svg">
<path d="M13.9136 2.17303L7.13624 2.17303C4.19239 2.17303 2.43741 3.92802 2.43741 6.87186L2.43741 13.6411C2.43741 16.593 4.19239 18.348 7.13624 18.348H13.9055C16.8493 18.348 18.6043 16.593 18.6043 13.6492V6.87186C18.6124 3.92802 16.8574 2.17303 13.9136 2.17303ZM8.83461 13.6492C8.83461 14.1668 8.41406 14.5873 7.88837 14.5873C7.37077 14.5873 6.95023 14.1668 6.95023 13.6492L6.95023 11.0127C6.95023 10.4951 7.37077 10.0745 7.88837 10.0745C8.41406 10.0745 8.83461 10.4951 8.83461 11.0127L8.83461 13.6492ZM14.0996 13.6492C14.0996 14.1668 13.679 14.5873 13.1614 14.5873C12.6357 14.5873 12.2152 14.1668 12.2152 13.6492L12.2152 6.87186C12.2152 6.35427 12.6357 5.93372 13.1614 5.93372C13.679 5.93372 14.0996 6.35427 14.0996 6.87186L14.0996 13.6492Z" fill="#898989"/>
</svg>
