<svg width="21" height="20" viewBox="0 0 21 20" fill="none" xmlns="http://www.w3.org/2000/svg">
<path d="M15.0215 1.75482L6.00399 1.75482C4.03873 1.75482 2.43741 3.35614 2.43741 5.3214L2.43741 10.5783V10.74C2.43741 12.7134 4.03873 14.3066 6.00399 14.3066H9.10958C9.5544 14.3066 9.91833 14.6705 9.91833 15.1154V15.8998C9.91833 16.3446 9.5544 16.7086 9.10958 16.7086H7.15241C6.82083 16.7086 6.54585 16.9836 6.54585 17.3151C6.54585 17.6467 6.81274 17.9298 7.15241 17.9298H13.9055C14.2371 17.9298 14.512 17.6548 14.512 17.3232C14.512 16.9916 14.2371 16.7167 13.9055 16.7167H11.9483C11.5035 16.7167 11.1395 16.3527 11.1395 15.9079V15.1234C11.1395 14.6786 11.5035 14.3147 11.9483 14.3147H15.0296C17.003 14.3147 18.5962 12.7134 18.5962 10.7481V10.5864V5.32949C18.5881 3.35614 16.9868 1.75482 15.0215 1.75482Z" fill="#898989"/>
</svg>
