<svg width="21" height="21" viewBox="0 0 21 21" fill="none" xmlns="http://www.w3.org/2000/svg">
<path d="M14.5687 2.3104L6.48118 2.3104C4.24904 2.3104 2.43744 4.11391 2.43744 6.33797L2.43744 11.1743L2.43744 11.983C2.43744 14.2071 4.24904 16.0106 6.48118 16.0106H7.69431C7.91267 16.0106 8.20382 16.1562 8.3413 16.3341L9.55443 17.9435C10.0882 18.6552 10.9617 18.6552 11.4954 17.9435L12.7085 16.3341C12.8622 16.1319 13.1048 16.0106 13.3555 16.0106H14.5687C16.8008 16.0106 18.6124 14.2071 18.6124 11.983V6.33797C18.6124 4.11391 16.8008 2.3104 14.5687 2.3104ZM11.3337 11.8132L6.48118 11.8132C6.1496 11.8132 5.87462 11.5382 5.87462 11.2066C5.87462 10.8751 6.1496 10.6001 6.48118 10.6001L11.3337 10.6001C11.6653 10.6001 11.9402 10.8751 11.9402 11.2066C11.9402 11.5382 11.6653 11.8132 11.3337 11.8132ZM14.5687 7.76946L6.48118 7.76946C6.1496 7.76946 5.87462 7.49448 5.87462 7.16289C5.87462 6.83131 6.1496 6.55633 6.48118 6.55633L14.5687 6.55633C14.9003 6.55633 15.1752 6.83131 15.1752 7.16289C15.1752 7.49448 14.9003 7.76946 14.5687 7.76946Z" fill="#898989"/>
</svg>
