<svg width="21" height="21" viewBox="0 0 21 21" fill="none" xmlns="http://www.w3.org/2000/svg">
<path d="M13.5982 2.4049C13.2666 2.07332 12.6924 2.29977 12.6924 2.76075V5.58329C12.6924 6.76406 13.6952 7.74265 14.9164 7.74265C15.6847 7.75073 16.7523 7.75073 17.6662 7.75073C18.1271 7.75073 18.3698 7.20887 18.0463 6.88537C16.8817 5.71269 14.7951 3.60185 13.5982 2.4049Z" fill="#898989"/>
<path d="M17.3993 8.85876H15.062C13.1453 8.85876 11.5844 7.29787 11.5844 5.38114V3.04386C11.5844 2.59904 11.2204 2.23511 10.7756 2.23511L7.34653 2.23511C4.85558 2.23511 2.8418 3.85261 2.8418 6.73984L2.8418 13.9054C2.8418 16.7926 4.85558 18.4101 7.34653 18.4101H13.7033C16.1942 18.4101 18.208 16.7926 18.208 13.9054V9.66751C18.208 9.2227 17.8441 8.85876 17.3993 8.85876ZM10.1205 14.9729H6.88554C6.55395 14.9729 6.27898 14.6979 6.27898 14.3663C6.27898 14.0348 6.55395 13.7598 6.88554 13.7598H10.1205C10.4521 13.7598 10.7271 14.0348 10.7271 14.3663C10.7271 14.6979 10.4521 14.9729 10.1205 14.9729ZM11.738 11.7379L6.88554 11.7379C6.55395 11.7379 6.27898 11.4629 6.27898 11.1313C6.27898 10.7998 6.55395 10.5248 6.88554 10.5248L11.738 10.5248C12.0696 10.5248 12.3446 10.7998 12.3446 11.1313C12.3446 11.4629 12.0696 11.7379 11.738 11.7379Z" fill="#898989"/>
</svg>
