<svg width="21" height="21" viewBox="0 0 21 21" fill="none" xmlns="http://www.w3.org/2000/svg">
<path d="M6.67528 2.37246L5.13866 2.37246C3.3675 2.37246 2.43744 3.30252 2.43744 5.06559L2.43744 6.60221C2.43744 8.36529 3.3675 9.29535 5.13057 9.29535H6.66719C8.43027 9.29535 9.36033 8.36529 9.36033 6.60221V5.06559C9.36842 3.30252 8.43835 2.37246 6.67528 2.37246Z" fill="#898989"/>
<path d="M15.9193 2.37246L14.3827 2.37246C12.6196 2.37246 11.6895 3.30252 11.6895 5.06559V6.60221C11.6895 8.36529 12.6196 9.29535 14.3827 9.29535H15.9193C17.6824 9.29535 18.6124 8.36529 18.6124 6.60221V5.06559C18.6124 3.30252 17.6824 2.37246 15.9193 2.37246Z" fill="#898989"/>
<path d="M15.9193 11.6165H14.3827C12.6196 11.6165 11.6895 12.5465 11.6895 14.3096V15.8462C11.6895 17.6093 12.6196 18.5393 14.3827 18.5393H15.9193C17.6824 18.5393 18.6124 17.6093 18.6124 15.8462V14.3096C18.6124 12.5465 17.6824 11.6165 15.9193 11.6165Z" fill="#898989"/>
<path d="M6.67528 11.6165H5.13866C3.3675 11.6165 2.43744 12.5465 2.43744 14.3096L2.43744 15.8462C2.43744 17.6174 3.3675 18.5474 5.13057 18.5474H6.66719C8.43027 18.5474 9.36033 17.6174 9.36033 15.8543V14.3177C9.36842 12.5465 8.43835 11.6165 6.67528 11.6165Z" fill="#898989"/>
</svg>
