<svg width="21" height="20" viewBox="0 0 21 20" fill="none" xmlns="http://www.w3.org/2000/svg">
<path d="M16.9949 11.724C17.9999 11.724 18.8146 10.9093 18.8146 9.90434C18.8146 8.89936 17.9999 8.08466 16.9949 8.08466C15.9899 8.08466 15.1752 8.89936 15.1752 9.90434C15.1752 10.9093 15.9899 11.724 16.9949 11.724Z" fill="#898989"/>
<path d="M16.9949 5.25405C17.9999 5.25405 18.8146 4.43935 18.8146 3.43437C18.8146 2.42939 17.9999 1.61469 16.9949 1.61469C15.9899 1.61469 15.1752 2.42939 15.1752 3.43437C15.1752 4.43935 15.9899 5.25405 16.9949 5.25405Z" fill="#898989"/>
<path d="M16.9949 18.194C17.9999 18.194 18.8146 17.3793 18.8146 16.3743C18.8146 15.3694 17.9999 14.5547 16.9949 14.5547C15.9899 14.5547 15.1752 15.3694 15.1752 16.3743C15.1752 17.3793 15.9899 18.194 16.9949 18.194Z" fill="#898989"/>
<path d="M4.05491 11.724C5.0599 11.724 5.8746 10.9093 5.8746 9.90434C5.8746 8.89936 5.0599 8.08466 4.05491 8.08466C3.04993 8.08466 2.23523 8.89936 2.23523 9.90434C2.23523 10.9093 3.04993 11.724 4.05491 11.724Z" fill="#898989"/>
<path d="M16.1861 10.5109C16.5177 10.5109 16.7927 10.236 16.7927 9.90437C16.7927 9.57278 16.5177 9.29781 16.1861 9.29781L10.3227 9.29781V5.86063C10.3227 4.5828 10.8646 4.04094 12.1424 4.04094L16.1861 4.04094C16.5177 4.04094 16.7927 3.76597 16.7927 3.43438C16.7927 3.10279 16.5177 2.82782 16.1861 2.82782L12.1424 2.82782C10.1852 2.82782 9.10957 3.90346 9.10957 5.86063V9.29781H4.86364C4.53205 9.29781 4.25708 9.57278 4.25708 9.90437C4.25708 10.236 4.53205 10.5109 4.86364 10.5109H9.10957V13.9481C9.10957 15.9053 10.1852 16.9809 12.1424 16.9809H16.1861C16.5177 16.9809 16.7927 16.7059 16.7927 16.3744C16.7927 16.0428 16.5177 15.7678 16.1861 15.7678H12.1424C10.8646 15.7678 10.3227 15.2259 10.3227 13.9481V10.5109L16.1861 10.5109Z" fill="#898989"/>
</svg>
