<svg width="21" height="20" viewBox="0 0 21 20" fill="none" xmlns="http://www.w3.org/2000/svg">
<path d="M10.592 12.7348C8.91784 12.7348 7.55914 11.3761 7.55914 9.70195C7.55914 8.02784 8.91784 6.66914 10.592 6.66914C12.2661 6.66914 13.6248 8.02784 13.6248 9.70195C13.6248 11.3761 12.2661 12.7348 10.592 12.7348ZM10.592 7.88227C9.5891 7.88227 8.77227 8.6991 8.77227 9.70195C8.77227 10.7048 9.5891 11.5216 10.592 11.5216C11.5948 11.5216 12.4116 10.7048 12.4116 9.70195C12.4116 8.6991 11.5948 7.88227 10.592 7.88227Z" fill="#898989"/>
<path d="M13.188 17.9431C13.0182 17.9431 12.8483 17.9188 12.6785 17.8784C12.1771 17.7409 11.7565 17.4255 11.4896 16.9807L11.3926 16.8189C10.9154 15.994 10.2603 15.994 9.78319 16.8189L9.69423 16.9726C9.42734 17.4255 9.00679 17.749 8.50536 17.8784C7.99585 18.0159 7.47017 17.9431 7.02535 17.6762L5.63431 16.8755C5.14097 16.5925 4.78512 16.1315 4.63146 15.5735C4.48588 15.0154 4.55867 14.4412 4.84173 13.9479C5.07627 13.5354 5.14097 13.1634 5.00348 12.9289C4.866 12.6943 4.51823 12.5568 4.04107 12.5568C2.8603 12.5568 1.89789 11.5944 1.89789 10.4136L1.89789 8.99025C1.89789 7.80947 2.8603 6.84706 4.04107 6.84706C4.51823 6.84706 4.866 6.70957 5.00348 6.47504C5.14097 6.2405 5.08436 5.86848 4.84173 5.45601C4.55867 4.96268 4.48588 4.38038 4.63146 3.83043C4.77703 3.27239 5.13288 2.81141 5.63431 2.52834L7.03344 1.72768C7.94733 1.18582 9.15236 1.50123 9.70231 2.43129L9.79936 2.59304C10.2765 3.41797 10.9316 3.41797 11.4088 2.59304L11.4977 2.43938C12.0477 1.50123 13.2527 1.18582 14.1747 1.73577L15.5657 2.53643C16.0591 2.81949 16.4149 3.28048 16.5686 3.83852C16.7142 4.39655 16.6414 4.97076 16.3583 5.4641C16.1238 5.87656 16.0591 6.24859 16.1966 6.48313C16.3341 6.71766 16.6818 6.85515 17.159 6.85515C18.3397 6.85515 19.3022 7.81756 19.3022 8.99833V10.4217C19.3022 11.6025 18.3397 12.5649 17.159 12.5649C16.6818 12.5649 16.3341 12.7024 16.1966 12.9369C16.0591 13.1715 16.1157 13.5435 16.3583 13.956C16.6414 14.4493 16.7223 15.0316 16.5686 15.5815C16.423 16.1396 16.0672 16.6006 15.5657 16.8836L14.1666 17.6843C13.8593 17.8541 13.5277 17.9431 13.188 17.9431ZM10.5919 14.9507C11.3117 14.9507 11.983 15.4036 12.444 16.2043L12.5329 16.3579C12.63 16.5278 12.7917 16.6491 12.9858 16.6976C13.1799 16.7461 13.374 16.7219 13.5358 16.6248L14.9349 15.8161C15.1452 15.6948 15.3069 15.4926 15.3716 15.25C15.4363 15.0073 15.404 14.7566 15.2827 14.5463C14.8217 13.7538 14.7651 12.9369 15.1209 12.3142C15.4768 11.6915 16.2127 11.3356 17.1347 11.3356C17.6523 11.3356 18.0648 10.9232 18.0648 10.4056V8.98216C18.0648 8.47265 17.6523 8.0521 17.1347 8.0521C16.2127 8.0521 15.4768 7.69625 15.1209 7.07351C14.7651 6.45078 14.8217 5.63394 15.2827 4.84136C15.404 4.63109 15.4363 4.38038 15.3716 4.13775C15.3069 3.89513 15.1533 3.70103 14.943 3.57163L13.5439 2.77097C13.1961 2.56069 12.7351 2.68201 12.5248 3.03786L12.4359 3.19152C11.9749 3.99218 11.3036 4.44508 10.5838 4.44508C9.86406 4.44508 9.1928 3.99218 8.73181 3.19152L8.64285 3.02977C8.44066 2.69009 7.98777 2.56878 7.64 2.77097L6.24087 3.57972C6.03059 3.70103 5.86884 3.90322 5.80414 4.14584C5.73944 4.38847 5.77179 4.63918 5.89311 4.84945C6.35409 5.64203 6.41071 6.45886 6.05486 7.0816C5.69901 7.70434 4.96305 8.06018 4.04107 8.06018C3.52347 8.06018 3.11101 8.47265 3.11101 8.99025L3.11101 10.4136C3.11101 10.9232 3.52347 11.3437 4.04107 11.3437C4.96305 11.3437 5.69901 11.6996 6.05486 12.3223C6.41071 12.945 6.35409 13.7619 5.89311 14.5544C5.77179 14.7647 5.73944 15.0154 5.80414 15.258C5.86884 15.5007 6.02251 15.6948 6.23278 15.8242L7.63192 16.6248C7.80175 16.73 8.00394 16.7542 8.18995 16.7057C8.38405 16.6572 8.5458 16.5278 8.65094 16.3579L8.7399 16.2043C9.20089 15.4117 9.87215 14.9507 10.5919 14.9507Z" fill="#898989"/>
</svg>
